<svg width="24" height="24" viewBox="0 0 24 24" fill="none" xmlns="http://www.w3.org/2000/svg">
<path d="M19.5877 3.50781C18.9037 3.50781 18.0803 3.72862 16.8348 4.24512L16.6844 4.30664C14.7819 5.09664 12.9453 5.86566 11.2108 6.59766C10.9328 6.71516 10.7557 6.98609 10.7557 7.28809C10.7557 7.82459 11.3042 8.18702 11.7987 7.97852C14.6282 6.78452 16.885 5.84934 17.409 5.63184C18.373 5.23134 19.0892 5.00879 19.5877 5.00879C20.4312 5.00879 20.6527 5.64653 20.4032 7.14453C20.2487 8.07053 19.9369 10.1542 19.5799 12.4307C19.5084 12.8857 19.8601 13.2988 20.3211 13.2988H20.3221C20.6911 13.2988 21.0063 13.0291 21.0633 12.6641C21.2183 11.6761 21.3654 10.7206 21.4959 9.87109C21.6614 8.79309 21.7971 7.90912 21.8836 7.39062C22.0581 6.34312 22.1385 5.15735 21.41 4.29785C21.104 3.93785 20.5402 3.50781 19.5877 3.50781ZM8.18637 7.98145C8.06497 7.9688 7.93805 7.98619 7.8143 8.03906C6.0643 8.78706 4.47575 9.4737 3.10825 10.0752C2.57125 10.3117 0.938301 11.0302 1.0018 12.5332C1.0288 13.1817 1.38554 14.0662 2.92954 14.5957L3.04379 14.6348C3.47479 14.7833 4.37184 15.0929 5.29184 15.3574C5.85184 15.5184 6.35824 15.5957 6.83774 15.5957C7.66974 15.5957 8.31421 15.3585 8.81821 15.082C8.81571 15.166 8.81757 15.2509 8.82407 15.3359C8.91507 16.4919 9.80862 17.1259 10.3426 17.5049L10.4178 17.5576C11.2063 18.1216 14.7746 20.4786 15.1786 20.7451C15.9391 21.2471 16.6257 21.4912 17.2782 21.4912C18.3042 21.4912 19.6291 20.943 20.1141 18.332C20.2426 17.64 20.3775 16.8714 20.5125 16.0674C20.5895 15.6099 20.2373 15.1914 19.7733 15.1914C19.4073 15.1914 19.0935 15.4554 19.0331 15.8164C18.899 16.6144 18.7665 17.3766 18.6395 18.0586C18.3885 19.4096 17.9357 19.9922 17.2772 19.9922C16.9152 19.9922 16.4917 19.8166 16.0047 19.4951C15.3447 19.0591 12.0124 16.8554 11.2889 16.3379C10.6289 15.8664 9.7182 15.2986 10.8602 14.1816C11.2667 13.7836 13.9307 11.2402 16.0057 9.26074C16.2272 9.04924 16.0417 8.72656 15.7957 8.72656C15.7397 8.72656 15.6799 8.74373 15.6219 8.78223C12.8249 10.6372 8.94647 13.2124 8.45297 13.5479C7.95947 13.8829 7.47874 14.0977 6.83774 14.0977C6.51024 14.0977 6.1404 14.041 5.7059 13.916C4.7344 13.637 3.78536 13.3047 3.41586 13.1777C1.99336 12.6897 2.33124 12.0572 3.71274 11.4492C5.21024 10.7907 6.82608 10.094 8.40707 9.41797C8.68307 9.29997 8.86118 9.02902 8.86118 8.72852V8.72754C8.86118 8.32404 8.55059 8.01939 8.18637 7.98145Z" fill="white"/>
</svg>
