<svg width="24" height="24" viewBox="0 0 24 24" fill="none" xmlns="http://www.w3.org/2000/svg">
<path d="M15.75 6.25H19.25C20.1 6.25 20.75 6.9 20.75 7.75V19.25C20.75 20.1 20.1 20.75 19.25 20.75H4.75C3.9 20.75 3.25 20.1 3.25 19.25V15.85" stroke="white" stroke-width="1.5" stroke-miterlimit="10" stroke-linecap="round" stroke-linejoin="round"/>
<path d="M3.25 10.95V7.75C3.25 6.9 3.9 6.25 4.75 6.25H12.25" stroke="white" stroke-width="1.5" stroke-miterlimit="10" stroke-linecap="round" stroke-linejoin="round"/>
<path d="M8.25 6.25V4.25C8.25 3.7 8.7 3.25 9.25 3.25H14.75C15.3 3.25 15.75 3.7 15.75 4.25V6.25" stroke="white" stroke-width="1.5" stroke-miterlimit="10" stroke-linecap="round" stroke-linejoin="round"/>
<path d="M10.5 13.7496H6.05C4.5 13.7496 3.25 12.4996 3.25 10.9496V8.34961" stroke="white" stroke-width="1.5" stroke-miterlimit="10" stroke-linecap="round" stroke-linejoin="round"/>
<path d="M15.4 13.75H13.5" stroke="white" stroke-width="1.5" stroke-miterlimit="10" stroke-linecap="round" stroke-linejoin="round"/>
<path d="M20.7501 9.84961V10.9996C20.7501 12.5496 19.5001 13.7996 17.9501 13.7996H15.3501" stroke="white" stroke-width="1.5" stroke-miterlimit="10" stroke-linecap="round" stroke-linejoin="round"/>
<path d="M13.5 12.25H10.5V15.25H13.5V12.25Z" stroke="white" stroke-width="1.5" stroke-miterlimit="10" stroke-linecap="round" stroke-linejoin="round"/>
</svg>
