<svg width="24" height="24" viewBox="0 0 24 24" fill="none" xmlns="http://www.w3.org/2000/svg">
<path d="M6.7 6.90039L4.9 8.35039C4.2 8.90039 3.75 9.80039 3.75 10.7004V19.7504C3.75 20.3004 4.2 20.7504 4.75 20.7504H14.75" stroke="white" stroke-width="1.5" stroke-miterlimit="10" stroke-linecap="round" stroke-linejoin="round"/>
<path d="M17.4999 20.7502H19.2499C19.7999 20.7502 20.2499 20.3002 20.2499 19.7502V10.7002C20.2499 9.8002 19.8499 8.9002 19.0999 8.3502L12.2999 3.0002C12.0999 2.8502 11.8499 2.8502 11.6999 3.0002L9.3999 4.8002" stroke="white" stroke-width="1.5" stroke-miterlimit="10" stroke-linecap="round" stroke-linejoin="round"/>
<path d="M9.25 17.85V13.75C9.25 13.45 9.45 13.25 9.75 13.25H14.2C14.5 13.25 14.7 13.45 14.7 13.75V20.75" stroke="white" stroke-width="1.5" stroke-miterlimit="10" stroke-linecap="round" stroke-linejoin="round"/>
</svg>
