<svg width="24" height="24" viewBox="0 0 24 24" fill="none" xmlns="http://www.w3.org/2000/svg">
<path d="M7 20.9004C7.82843 20.9004 8.5 20.2288 8.5 19.4004C8.5 18.572 7.82843 17.9004 7 17.9004C6.17157 17.9004 5.5 18.572 5.5 19.4004C5.5 20.2288 6.17157 20.9004 7 20.9004Z" fill="white"/>
<path d="M3.5 21.9004C4.05228 21.9004 4.5 21.4527 4.5 20.9004C4.5 20.3481 4.05228 19.9004 3.5 19.9004C2.94772 19.9004 2.5 20.3481 2.5 20.9004C2.5 21.4527 2.94772 21.9004 3.5 21.9004Z" fill="white"/>
<path d="M15.4501 15.5498C16.6501 15.0998 17.5501 14.0498 17.7001 12.7498C19.4001 12.4998 20.7501 11.0498 20.7501 9.2998C20.7501 7.5498 19.4501 6.0998 17.7501 5.8498V5.7998C17.7501 3.8498 16.2001 2.2998 14.2501 2.2998C13.1501 2.2998 12.1501 2.7998 11.5001 3.6498C10.8501 2.8498 9.8501 2.2998 8.7501 2.2998C7.7001 2.2998 6.7501 2.7498 6.1001 3.4998" stroke="white" stroke-width="1.5" stroke-miterlimit="10" stroke-linecap="round" stroke-linejoin="round"/>
<path d="M5.25 5.90039C3.8 6.35039 2.75 7.65039 2.75 9.25039C2.75 10.8504 3.8 12.2004 5.25 12.6004C5.45 14.3504 6.9 15.7504 8.75 15.7504C9.85 15.7504 10.85 15.2504 11.5 14.4004" stroke="white" stroke-width="1.5" stroke-miterlimit="10" stroke-linecap="round" stroke-linejoin="round"/>
</svg>
