<svg width="24" height="24" viewBox="0 0 24 24" fill="none" xmlns="http://www.w3.org/2000/svg">
<path d="M5.25 3.00008C4.01625 3.00008 3 4.01632 3 5.25008V9.25007C3 10.4838 4.01625 11.5001 5.25 11.5001H9.25C10.4838 11.5001 11.5 10.4838 11.5 9.25007V5.25008C11.5 4.01632 10.4838 3.00008 9.25 3.00008H8.05273C7.95335 2.99867 7.85468 3.01703 7.76245 3.05409C7.67023 3.09115 7.58629 3.14617 7.51551 3.21595C7.44473 3.28574 7.38853 3.36889 7.35017 3.46059C7.31181 3.55228 7.29205 3.65068 7.29205 3.75007C7.29205 3.84947 7.31181 3.94787 7.35017 4.03956C7.38853 4.13126 7.44473 4.21441 7.51551 4.2842C7.58629 4.35398 7.67023 4.409 7.76245 4.44606C7.85468 4.48312 7.95335 4.50148 8.05273 4.50007H9.25C9.67325 4.50007 10 4.82683 10 5.25008V9.25007C10 9.67332 9.67325 10.0001 9.25 10.0001H5.25C4.82675 10.0001 4.5 9.67332 4.5 9.25007V5.25008C4.5 4.82683 4.82675 4.50007 5.25 4.50007H5.37207C5.47145 4.50148 5.57013 4.48312 5.66235 4.44606C5.75458 4.409 5.83852 4.35398 5.9093 4.2842C5.98007 4.21441 6.03628 4.13126 6.07464 4.03956C6.113 3.94787 6.13275 3.84947 6.13275 3.75007C6.13275 3.65068 6.113 3.55228 6.07464 3.46059C6.03628 3.36889 5.98007 3.28574 5.9093 3.21595C5.83852 3.14617 5.75458 3.09115 5.66235 3.05409C5.57013 3.01703 5.47145 2.99867 5.37207 3.00008H5.25ZM14.75 3.00008C13.5162 3.00008 12.5 4.01632 12.5 5.25008V9.25007C12.5 10.4838 13.5162 11.5001 14.75 11.5001H18.75C19.9838 11.5001 21 10.4838 21 9.25007V8.54793C21.0014 8.44854 20.983 8.34987 20.946 8.25764C20.9089 8.16542 20.8539 8.08148 20.7841 8.0107C20.7143 7.93992 20.6312 7.88372 20.5395 7.84536C20.4478 7.807 20.3494 7.78724 20.25 7.78724C20.1506 7.78724 20.0522 7.807 19.9605 7.84536C19.8688 7.88372 19.7857 7.93992 19.7159 8.0107C19.6461 8.08148 19.5911 8.16542 19.554 8.25764C19.517 8.34987 19.4986 8.44854 19.5 8.54793V9.25007C19.5 9.67332 19.1733 10.0001 18.75 10.0001H14.75C14.3268 10.0001 14 9.67332 14 9.25007V5.25008C14 4.82683 14.3268 4.50007 14.75 4.50007H18.75C19.1507 4.50007 19.4634 4.79699 19.4971 5.18269C19.5038 5.28221 19.5303 5.37938 19.5751 5.46851C19.6199 5.55765 19.6819 5.63697 19.7577 5.70182C19.8335 5.76668 19.9214 5.81577 20.0164 5.84622C20.1114 5.87667 20.2115 5.88787 20.3109 5.87917C20.4102 5.87047 20.5069 5.84204 20.5951 5.79554C20.6833 5.74904 20.7614 5.68541 20.8248 5.60837C20.8881 5.53133 20.9355 5.44243 20.9641 5.34687C20.9926 5.25131 21.0019 5.151 20.9912 5.05183C20.8909 3.90453 19.9173 3.00008 18.75 3.00008H14.75ZM5.25 12.5001C4.01625 12.5001 3 13.5163 3 14.7501V18.7501C3 19.9838 4.01625 21.0001 5.25 21.0001H9.25C10.4838 21.0001 11.5 19.9838 11.5 18.7501V17.67C11.5014 17.5706 11.483 17.4719 11.446 17.3797C11.4089 17.2875 11.3539 17.2035 11.2841 17.1328C11.2143 17.062 11.1312 17.0058 11.0395 16.9674C10.9478 16.9291 10.8494 16.9093 10.75 16.9093C10.6506 16.9093 10.5522 16.9291 10.4605 16.9674C10.3688 17.0058 10.2857 17.062 10.2159 17.1328C10.1461 17.2035 10.0911 17.2875 10.054 17.3797C10.017 17.4719 9.99859 17.5706 10 17.67V18.7501C10 19.1733 9.67325 19.5001 9.25 19.5001H5.25C4.82675 19.5001 4.5 19.1733 4.5 18.7501V14.7501C4.5 14.3268 4.82675 14.0001 5.25 14.0001H9.25C9.64859 14.0001 9.95969 14.295 9.99609 14.6768C10.004 14.776 10.0315 14.8727 10.0771 14.9612C10.1227 15.0496 10.1854 15.1281 10.2616 15.1921C10.3378 15.2561 10.426 15.3042 10.5211 15.3338C10.6161 15.3633 10.7161 15.3737 10.8151 15.3642C10.9142 15.3548 11.0104 15.3257 11.0981 15.2787C11.1858 15.2317 11.2633 15.1677 11.326 15.0905C11.3888 15.0132 11.4355 14.9242 11.4636 14.8288C11.4916 14.7333 11.5003 14.6332 11.4893 14.5343C11.3807 13.3951 10.4114 12.5001 9.25 12.5001H5.25ZM14.75 12.5001C13.5162 12.5001 12.5 13.5163 12.5 14.7501V18.7501C12.5 19.9838 13.5162 21.0001 14.75 21.0001C14.8494 21.0015 14.9481 20.9831 15.0403 20.9461C15.1325 20.909 15.2164 20.854 15.2872 20.7842C15.358 20.7144 15.4142 20.6313 15.4526 20.5396C15.4909 20.4479 15.5107 20.3495 15.5107 20.2501C15.5107 20.1507 15.4909 20.0523 15.4526 19.9606C15.4142 19.8689 15.358 19.7857 15.2872 19.716C15.2164 19.6462 15.1325 19.5912 15.0403 19.5541C14.9481 19.517 14.8494 19.4987 14.75 19.5001C14.3268 19.5001 14 19.1733 14 18.7501V14.7501C14 14.3268 14.3268 14.0001 14.75 14.0001H18.75C19.1733 14.0001 19.5 14.3268 19.5 14.7501V18.7501C19.5 19.1733 19.1733 19.5001 18.75 19.5001H18.4092C18.3098 19.4987 18.2111 19.517 18.1189 19.5541C18.0267 19.5912 17.9427 19.6462 17.872 19.716C17.8012 19.7857 17.745 19.8689 17.7066 19.9606C17.6683 20.0523 17.6485 20.1507 17.6485 20.2501C17.6485 20.3495 17.6683 20.4479 17.7066 20.5396C17.745 20.6313 17.8012 20.7144 17.872 20.7842C17.9427 20.854 18.0267 20.909 18.1189 20.9461C18.2111 20.9831 18.3098 21.0015 18.4092 21.0001H18.75C19.9838 21.0001 21 19.9838 21 18.7501V14.7501C21 13.5163 19.9838 12.5001 18.75 12.5001H14.75Z" fill="white"/>
</svg>
